<svg height="50" viewBox="0 0 51 50" width="51" xmlns="http://www.w3.org/2000/svg"><g fill="none" transform="translate(.8 .000001)"><path d="m0 .000003h50v49.999997h-50z" fill="#000" opacity="0"/><g fill="#1f90fb"><path d="m24.9994322 4.53001692c.3952248 0 .7869809.07373239 1.1551529.21744052l14.628538 5.71913856c1.2163751.475264 2.0169874 1.6476406 2.0169874 2.9535671v12.7848228c-.0260476 8.2740647-11.8176662 16.1506209-16.234427 18.8120023-1.0115821.6076098-2.2768902.6032466-3.284258-.0113251-4.3816531-2.6659113-16.01245641-10.5084925-16.08153911-18.6862944v-12.8992056c0-1.3056442.79992514-2.4779396 2.01585497-2.9535671l14.63193564-5.71913856c.367071-.14342088.7576605-.21744052 1.1517552-.21744052m0-4.53001384c-.9595549-.00075323-1.9107225.1786471-2.8040768.52888184l-14.62853807 5.7191386c-2.95320616 1.1545724-4.89694189 4.00126218-4.89694189 7.17213958v12.9365782c.04303511 4.7870889 2.67497148 9.7157406 7.82446156 14.6398623 3.8018117 3.6409962 8.1698748 6.4960355 10.4360129 7.8742912 2.4478979 1.4912095 5.5214425 1.4994999 7.9773493.0215176 2.2899206-1.3805208 6.7044163-4.2412226 10.5458657-7.9003388 5.2095126-4.9637593 7.8607016-9.9354461 7.8765566-14.7780277v-12.7972803c0-3.1708774-1.9437357-6.01756719-4.8969419-7.17213959l-14.6296706-5.71574109c-.8933244-.35033849-1.8445118-.52974256-2.8040768-.52888184z"/><path d="m31.7944488 22.3782594h-13.5900331c-.8092877.0001188-1.5571513-.4315628-1.9618294-1.1324067-.4046782-.7008439-.4046782-1.5643535 0-2.2651974.4046781-.7008439 1.1525417-1.1325255 1.9618294-1.1324067h13.5900331c1.2507981.0001837 2.2646729 1.0142073 2.2646729 2.2650054 0 1.250798-1.0138748 2.2648217-2.2646729 2.2650054z"/><path d="m24.9994322 29.1732755c-.6007168 0-1.1768298-.2386338-1.6016007-.6634047-.424771-.4247709-.6634048-1.0008839-.6634048-1.6016007v-13.5900323c0-1.2509279 1.0140775-2.2650054 2.2650055-2.2650054s2.2650055 1.0140775 2.2650055 2.2650054v13.5900323c0 1.250928-1.0140775 2.2650054-2.2650055 2.2650054z"/></g></g></svg>