<svg height="88" viewBox="0 0 88 88" width="88" xmlns="http://www.w3.org/2000/svg"><g fill="none" fill-rule="evenodd"><rect fill="#e7f9e5" height="88" rx="4" width="88" y=".000001"/><g fill-rule="nonzero"><path d="m11.8461538 23.6923077h11.8461539v-11.8461539h-11.8461539zm-11.8461538 53.3076923h35.5384615v-35.5384615h-35.5384615zm5.92307692-29.6153846h23.69230768v23.6923077h-23.69230768zm5.92307688 17.7692308h11.8461539v-11.8461539h-11.8461539zm29.6153847-65.1538462v35.5384615h35.5384615v-35.5384615zm29.6153846 29.6153846h-23.6923077v-23.69230768h23.6923077zm0 23.6923077h-11.8461539v-11.8461538h-11.8461538-5.9230769v11.8461538 23.6923077h5.9230769v-23.6923077h5.9230769v5.9230769h17.7692308 5.9230769v-17.7692307h-5.9230769zm-71.0769231-17.7692308h35.5384615v-35.5384615h-35.5384615zm5.92307692-29.61538458h23.69230768v23.69230768h-23.69230768zm59.23076928 5.92307688h-11.8461539v11.8461539h11.8461539zm5.9230769 65.1538462h5.9230769v-11.8461538h-5.9230769zm-11.8461539 0h5.923077v-11.8461538h-5.923077z" fill="#13c700" transform="translate(5.599504 5.722846)"/><g transform="translate(54.7125 35.500001)"><path d="m0 0h16v16h-16z" fill="#000" opacity="0"/><path d="m13.6666667 8.65433333v3.01233337h-3v-2.00033337h-1.00000003v4.04666667h-1v-5.04633333h3.00000003v1.99966663h1v-2.01199997zm-6.33333337.01233334v5.00000003h-5v-5.00000003zm6.33333337 4.00000003v1h-3v-1zm-7.33333337-3.00000003h-3v3.00000003h3zm-1 1.00000003v1h-1v-1zm2-8.33333337v5h-5v-5zm6.33333337 0v5h-5.00000003v-5zm-7.33333337 1h-3v3h3zm6.33333337 0h-3.00000003v3h3.00000003zm-7.33333337 1v1h-1v-1zm6.33333337 0v1h-1v-1z" fill="#1677ff"/></g></g><g transform="translate(14 27.000001)"><rect fill="#fff" height="34" rx="6" width="60"/><text fill="#13c700" font-family="PingFangSC-Medium, PingFang SC" font-size="24" font-weight="400"><tspan x="6" y="25.5">绿码</tspan></text></g></g></svg>