<svg height="20" viewBox="0 0 21 20" width="21" xmlns="http://www.w3.org/2000/svg"><g fill="none" fill-rule="evenodd" transform="translate(.562873 -.000004)"><path d="m0 .00001h20v20h-20z" fill="none"/><path d="m17.7633383 0c.557869 0 1.0101111.45218981 1.0101111 1.00999422v4.48184934l-.0051371.07479735c-.0222475.3074097-.1822545.60203906-.4578305.77738528-.1342169.08423155-.2806762.1332099-.4284571.14933403-.0424978.00569819-.0854976.00847756-.1292084.00847756h-4.4718462c-.557869 0-1.0101111-.45218981-1.0101111-1.00999422 0-.5578044.4522421-1.00999421 1.0101111-1.00999421l2.3413735-.00090214c-1.4197239-1.30774517-3.2979785-2.05673242-5.277009-2.05064862-4.2929723 0-7.78627331 3.49289667-7.78627331 7.78537211 0 4.2924754 3.49330101 7.7853721 7.78627331 7.7853721 3.1305897.0014516 5.9576064-1.8719555 7.1759979-4.7553895.2209618-.5155178.8101933-.7469748 1.3152489-.5365594.5155775.2209363.7470613.8100995.5366215 1.3150967-1.5327226 3.626699-5.0902043 5.9814959-9.0278683 5.9758094-5.39778135 0-9.79597359-4.3976935-9.79597359-9.7948501 0-5.39715659 4.39819224-9.79483975 9.79597359-9.79483975 2.3956722 0 4.6528507.8574968 6.4076977 2.37922403l.0001949-1.77953996c0-.55780441.4522421-1.00999422 1.0101111-1.00999422z" fill="#9c9c9c" fill-rule="nonzero"/></g></svg>