<svg height="29" viewBox="0 0 29 29" width="29" xmlns="http://www.w3.org/2000/svg"><g fill="none" fill-rule="evenodd" opacity=".65" transform="translate(.963731 .700001)"><path d="m0 0h28v28h-28z" fill="none"/><path d="m14.003325 18.2959c-.5012438 0-.9999938.20615-1.3549375.5602625-.3549438.3541125-.5610938.8520313-.5610938 1.3524438s.20615.9991625.5610938 1.3524437c.3541125.3541125.8528625.5602625 1.3549375.5602625s.9999937-.20615 1.3549375-.5602625c.3541125-.3541125.5610937-.8520312.5610937-1.3524437s-.20615-.9991625-.5610937-1.3524438c-.3541125-.3541125-.8528625-.5602625-1.3549375-.5602625zm-.01995-12.0547875c-1.2917625 0-2.3358125.395675-3.1313188 1.1853625-.7955062.79135-1.2593437 1.88111875-1.28511245 2.8852688-.02576875 1.00415 2.09474995.7955062 2.17288745.3000812.083125-.52535.4305875-1.37405625.8354063-1.75809375.4048187-.3840375.9093875-.5768875 1.5112125-.5768875.6251 0 1.1221875.1845375 1.4904313.5536125.3682437.369075.5536125.8129625.5536125 1.33000005 0 .3732312-.1047375.714875-.3117188 1.0249312-.1346625.196175-.548625.6101375-1.2385625 1.2427188-.6899375.6325812-1.1521125 1.2019875-1.3815375 1.7073875s-.3458 1.15045-.3458 1.93515c0 .0748125.0024938.2876125.0083125.635075h2.1504438c-.0116375-.7331625.0440562-1.2427188.1645875-1.5270063.1205312-.2851187.4305875-.661675.9293375-1.1288375.96425-.9035687 1.5943375-1.619275 1.8894312-2.1429625.2942625-.5245187.4405625-1.0822875.4405625-1.6699812 0-1.06233755-.4006625-1.9941688-1.2053125-2.79466255s-1.885275-1.20115625-3.2452-1.20115625zm.016625-5.5411125c-7.33079375 0-13.3 5.96588125-13.3 13.3008313 0 7.33495 5.96754375 13.2991687 13.3 13.2991687 7.3332875 0 13.3-5.9642187 13.3-13.2991687 0-7.33495005-5.96505-13.3008313-13.3-13.3008313zm-.0083125 24.9092375c-6.4122625 0-11.62669375-5.2152625-11.62669375-11.6233687 0-6.41226255 5.2152625-11.62586255 11.62669375-11.62586255 6.4114313 0 11.6283563 5.21276875 11.6283563 11.62586255.0008312 6.4089375-5.2160938 11.6233687-11.6283563 11.6233687z" fill="#9c9c9c" fill-rule="nonzero"/></g></svg>