<svg height="50" viewBox="0 0 51 50" width="51" xmlns="http://www.w3.org/2000/svg"><g fill="none" transform="translate(.955664 .000001)"><path d="m0 0h50v50h-50z" fill="#000" opacity="0"/><path d="m25.9236147 31.4612639-1.8498459-1.8524625c-.9915703-1.0266485-.9773895-2.6585577.0318724-3.6678195 1.0092618-1.0092618 2.641171-1.0234427 3.6678195-.0318723l1.8498459 1.8498459 3.7023084-3.6996919-7.4020003-7.3993838-16.65122995 16.65123c-1.02142355 1.0217321-1.02142355 2.6779598 0 3.6996919l3.69969185 3.6996919c.4907672.4913134 1.1567183.7673764 1.8511542.7673764.694436 0 1.360387-.276063 1.8511542-.7673764l1.849846-1.849846-1.849846-1.8498459c-.9915703-1.0266485-.9773894-2.6585577.0318724-3.6678195s2.641171-1.0234427 3.6678195-.0318724l1.8498459 1.849846 3.6996919-3.7023084zm-20.35092184 9.2466132c-1.47233883-1.4720894-2.29951113-3.4688209-2.29951113-5.5508461s.8271723-4.0787566 2.29951113-5.550846l16.65122994-16.65123-3.6996918-3.69969191c-.9663243-1.03048355-.9401566-2.64196938.0591158-3.64053509.9992725-.99856571 2.6107764-1.02359333 3.640576-.05654033l22.2007679 22.20076783c.6801692.6569294.9529522 1.6297428.7135045 2.5445385-.2394476.9147958-.9538622 1.6292103-1.8686579 1.868658-.9147957.2394476-1.8876091-.0333354-2.5445385-.7135046l-3.6996919-3.6996919-16.65123 16.65123c-1.4720894 1.4723388-3.4688209 2.2995111-5.5508461 2.2995111s-4.0787566-.8271723-5.55084605-2.2995111l-1.84984595 1.8498459c-.65692941.6801692-1.62974278.9529522-2.54453851.7135046-.91479574-.2394476-1.62921033-.9538622-1.86865795-1.8686579-.23944762-.9147958.03333536-1.8876092.71350457-2.5445386l1.84984595-1.8498459zm37.00215184-22.2007678-11.0990757-11.09907568c-.6608863-.66135369-.9187424-1.62504835-.6764364-2.52806952.2423059-.90302118.9479619-1.60817847 1.8511541-1.84984595.9031923-.24166748 1.8667044.01686988 2.5275907.67822358l11.0990757 11.10169217c.6801692.6569294.9529522 1.6297428.7135046 2.5445385-.2394477.9147957-.9538622 1.6292103-1.868658 1.8686579-.9147957.2394477-1.8876091-.0333353-2.5445385-.7135045z" fill="#1f90fb"/></g></svg>