<svg viewBox="0 0 72 72" xmlns="http://www.w3.org/2000/svg"><path d="m32.9555556 10c.6381957 0 1.1555555.5173598 1.1555555 1.1555556v20.8c0 .6381957-.5173598 1.1555555-1.1555555 1.1555555h-20.8c-.6381958 0-1.1555556-.5173598-1.1555556-1.1555555v-20.8c0-.6381958.5173598-1.1555556 1.1555556-1.1555556zm-8.0888889 8.0888889h-4.6222223c-.6381957 0-1.1555555.5173598-1.1555555 1.1555555v4.6222223c0 .6381957.5173598 1.1555555 1.1555555 1.1555555h4.6222223c.6381957 0 1.1555555-.5173598 1.1555555-1.1555555v-4.6222223c0-.6381957-.5173598-1.1555555-1.1555555-1.1555555zm8.0888889 20.8c.6381957 0 1.1555555.5173598 1.1555555 1.1555555v20.8c0 .6381958-.5173598 1.1555556-1.1555555 1.1555556h-20.8c-.6381958 0-1.1555556-.5173598-1.1555556-1.1555556v-20.8c0-.6381957.5173598-1.1555555 1.1555556-1.1555555zm-8.0888889 8.0888889h-4.6222223c-.6381957 0-1.1555555.5173598-1.1555555 1.1555555v4.6222223c0 .6381957.5173598 1.1555555 1.1555555 1.1555555h4.6222223c.6381957 0 1.1555555-.5173598 1.1555555-1.1555555v-4.6222223c0-.6381957-.5173598-1.1555555-1.1555555-1.1555555zm36.9777777-36.9777778c.6381958 0 1.1555556.5173598 1.1555556 1.1555556v20.8c0 .6381957-.5173598 1.1555555-1.1555556 1.1555555h-20.8c-.6381957 0-1.1555555-.5173598-1.1555555-1.1555555v-20.8c0-.6381958.5173598-1.1555556 1.1555555-1.1555556zm-8.0888888 8.0888889h-4.6222223c-.6381957 0-1.1555555.5173598-1.1555555 1.1555555v4.6222223c0 .6381957.5173598 1.1555555 1.1555555 1.1555555h4.6222223c.6381957 0 1.1555555-.5173598 1.1555555-1.1555555v-4.6222223c0-.6381957-.5173598-1.1555555-1.1555555-1.1555555zm8.0888888 20.8c.6381958 0 1.1555556.5173598 1.1555556 1.1555555v20.8c0 .6381958-.5173598 1.1555556-1.1555556 1.1555556h-20.8c-.6381957 0-1.1555555-.5173598-1.1555555-1.1555556v-6.9333333c0-.6381957.5173598-1.1555555 1.1555555-1.1555555l12.7105556-.0005556.0005556-12.7105556c0-.6381957.5173598-1.1555555 1.1555555-1.1555555zm-13.8666666 0c.6381957 0 1.1555555.5173598 1.1555555 1.1555555v6.9333334c0 .6381957-.5173598 1.1555555-1.1555555 1.1555555h-6.9333334c-.6381957 0-1.1555555-.5173598-1.1555555-1.1555555v-6.9333334c0-.6381957.5173598-1.1555555 1.1555555-1.1555555z" fill="#3888ff" fill-rule="evenodd"/></svg>