<svg viewBox="0 0 37 29" xmlns="http://www.w3.org/2000/svg"><path d="m17.6583101 29c.5725782 0 1.0449551-.1840174 1.4171309-.5520523s.5582637-.8395797.5582637-1.4146342v-24.98036882c0-.56355344-.1860879-1.04659925-.5582637-1.44913742s-.8502785-.60380726-1.4343082-.60380726c-.4008047 0-.761529.09200873-1.0821727.27602618-.3206438.18401745-.6985454.4830458-1.1337048.89708506l-6.87093775 6.45211184c-.09161251.09200873-.22330548.13801309-.39507892.13801309h-4.62070567c-1.1451563 0-2.02120086.31627999-2.6281337.94883998-.60693284.63255998-.91039926 1.55839775-.91039926 2.77751335v6.0725759c0 1.2306167.30346642 2.1564545.91039926 2.7775134s1.4829774.9315883 2.6281337.9315883h4.62070567c.17177344 0 .30346641.0517549.39507892.1552647l6.87093775 6.5211184c.3893532.3680349.7586661.6354353 1.1079388.8022011.3492726.1667658.7243113.2501487 1.125116.2501487zm15.0902971-2.8723974c.3721758-.0747571.6727794-.284652.9018106-.6296847 1.0535438-1.4721396 1.8751935-3.1656752 2.464949-5.0806068s.8846332-3.8902439.8846332-5.9259369c0-2.0356931-.2920149-4.0167559-.8760446-5.9431886-.5840297-1.92643268-1.4085422-3.61421772-2.4735376-5.06335514-.2290312-.34503272-.5296348-.5578029-.9018106-.63831053-.3721758-.08050764-.7243113-.00575055-1.0564066.22427127-.3435469.23002181-.5382235.53767598-.5840298.92296252-.0458062.38528653.0572579.77344834.3091922 1.16448542.8817704 1.25361888 1.5631384 2.69125521 2.044104 4.31290899.4809657 1.62165377.7214485 3.29506247.7214485 5.02022607s-.2433457 3.395697-.7300371 5.0116002c-.4866915 1.6159033-1.1651966 3.0564149-2.0355154 4.3215348-.2519343.3910371-.3549984.7791989-.3091922 1.1644854.0458063.3852866.2404829.6929408.5840298.9229626.3320953.2185207.6842308.2904025 1.0564066.2156454zm-6.2954967-4.312909c.36645-.0747571.6641906-.2789014.8932219-.612433.6527391-.8510807 1.1566079-1.8631767 1.5116063-3.036288.3549985-1.1731112.5324977-2.3979774.5324977-3.6745984 0-1.2766211-.1774992-2.498612-.5324977-3.6659727-.3549984-1.16736065-.8588672-2.18808244-1.5116063-3.06216533-.2290313-.32203054-.5267719-.52042435-.8932219-.59518144s-.7042711-.00287527-1.0134633.21564545c-.36645.25302399-.578304.58080507-.6355618.98334325-.0572578.40253817.0572578.79932579.3435469 1.19036288.4580625.65556219.813061 1.41175889 1.0649954 2.26859009.2519344.8568313.3779015 1.7452905.3779015 2.6653778 0 .9200872-.1259671 1.8056712-.3779015 2.6567519s-.6069329 1.6044022-1.0649954 2.2599643c-.2862891.4025382-.4008047.8050764-.3435469 1.2076145.0572578.4025382.2691118.7303193.6355618.9833433.3091922.2185207.6470133.2904025 1.0134633.2156454z" fill="#3888ff"/></svg>