<svg height="96" viewBox="0 0 190 96" width="190" xmlns="http://www.w3.org/2000/svg"><g fill="none"><path d="m0 0h190v96h-190z"/><g fill="#fff"><path d="m0 86.1328125h48.6914062v-12.2460937h-32.6367187l27.4804687-34.453125c3.4375-4.375 5.15625-9.375 5.15625-15-.078125-7.03125-2.4414062-12.8320313-7.0898437-17.4023438-4.5703125-4.609375-10.5273437-6.953125-17.8710937-7.03125-6.5625.078125-12.0898438 2.3828125-16.5820313 6.9140625-4.453125 4.6484375-6.8359375 10.5273437-7.1484375 17.6367187h12.1875c.4296875-3.90625 1.796875-6.9335937 4.1015625-9.0820312 2.2265625-2.1484375 5.0195313-3.2226562 8.3789062-3.2226562 3.7890625.078125 6.7187501 1.3085937 8.7890625 3.6914062 1.9921876 2.3828125 2.9882813 5.1757812 2.9882813 8.3789062 0 1.2109376-.15625 2.5-.46875 3.8671876-.46875 1.4453125-1.3476563 3.0078124-2.6367187 4.6875l-33.3398438 41.71875z" transform="translate(1.636719 5.734375)"/><path d="m55 73.7148438h35.625v12.7148437h12.246094v-12.7148437h6.796875v-11.5429688h-6.796875v-24.5507812h-12.246094v24.5507812h-22.3242188l28.8867188-61.171875h-13.6523438l-28.5351562 61.171875z" transform="translate(1.636719 5.734375)"/><path d="m13.312 28.992c2.72 0 4.096-1.44 4.096-4.256v-24.512h-3.488v23.616c0 1.28-.64 1.92-1.888 1.92-1.28 0-2.656-.096-4.128-.256l.8 3.488zm13.824-5.408 3.04-2.112c-1.216-4.16-2.944-9.056-5.152-14.656l-3.072 1.92c2.176 5.44 3.904 10.4 5.184 14.848zm-24.192-.192c2.368-3.328 4.256-8.16 5.696-14.432l-3.36-1.312c-1.12 5.472-2.88 9.856-5.28 13.152zm52.128 5.632c2.176 0 3.296-1.12 3.296-3.36v-17.184h3.456v-3.232h-3.456v-5.248h-3.392v5.248h-10.496v3.232h10.496v16.352c0 .768-.384 1.152-1.088 1.152-1.664 0-3.424-.064-5.28-.192l.736 3.232zm-18.464-2.272v-2.688h3.488v1.92h3.2v-24.128h-9.952v24.896zm3.488-15.52h-3.488v-6.336h3.488zm9.76 10.048 2.784-1.92c-1.024-2.208-2.528-4.8-4.448-7.808l-2.752 1.728c1.856 2.944 3.328 5.632 4.416 8zm-9.76-.32h-3.488v-6.624h3.488zm-35.392 56.416v-25.504h4.832c-.704 2.528-1.696 5.376-2.976 8.544 1.728 2.656 2.592 5.056 2.592 7.2 0 .512-.16.864-.48 1.056-.352.192-1.024.32-1.984.384-.448 0-1.024-.064-1.728-.16l1.056 3.296c2.56-.032 4.384-.448 5.472-1.28.672-.672 1.024-1.76 1.024-3.296-.128-2.176-.992-4.736-2.56-7.712 1.152-3.008 2.144-5.856 2.976-8.544v-2.624h-11.488v28.64zm8.896.32c1.856-2.816 3.072-6.24 3.68-10.272h7.84v5.312c0 .832-.352 1.248-1.024 1.248-.96 0-2.016-.064-3.136-.128l.896 3.2h3.264c2.176 0 3.264-1.056 3.264-3.136v-25.12h-13.824v13.344c-.032 5.312-1.248 9.664-3.616 13.12zm11.52-21.216h-7.424v-4.48h7.424zm0 7.84h-7.52c.064-.768.096-1.568.096-2.368v-2.368h7.424zm14.72 12.928v-22.944c.608 1.696 1.12 3.488 1.568 5.376l1.248-.32c-.192.384-.384.768-.576 1.184l2.496 2.208c1.024-1.856 1.824-3.872 2.4-6.048h4.096v6.816h-7.072v3.264h7.072v6.496h-8.768v3.232h19.616v-3.232h-7.456v-6.496h6.304v-3.264h-6.304v-6.816h6.592v-3.232h-6.592v-5.6h-3.392v5.6h-3.456c.128-1.024.192-2.048.256-3.136l-3.04-.416c-.128 2.56-.576 4.96-1.312 7.264-.416-1.408-.864-2.72-1.376-3.936l-2.304.736v-6.176h-3.36v29.44zm-5.088-13.888c.576-2.88.928-5.92.992-9.12l-2.56-.192c-.096 3.008-.48 5.856-1.12 8.544z" transform="translate(127.964813 10.116812)"/></g></g></svg>