<svg height="30" viewBox="0 0 30 30" width="30" xmlns="http://www.w3.org/2000/svg"><path d="m15 0c8.2842712 0 15 6.71572875 15 15 0 8.2842712-6.7157288 15-15 15-8.28427125 0-15-6.7157288-15-15 0-8.28427125 6.71572875-15 15-15zm7.6603235 11.2203884c-.6508739-.6508738-1.7061488-.6508738-2.3570226 0l-6.4820479 6.4811051-3.5352982-3.5348268c-.65087383-.6508739-1.70614879-.6508739-2.35702261 0-.65087382.6508738-.65087382 1.7061488 0 2.3570226l4.71404521 4.7140452.1060123.0973606c.6548229.5517102 1.634393.5192567 2.2510103-.0973606l7.6603235-7.6603235c.6508738-.6508738.6508738-1.7061488 0-2.3570226z" fill="#fff" fill-rule="evenodd"/></svg>