<svg height="36" viewBox="0 0 36 36" width="36" xmlns="http://www.w3.org/2000/svg"><g fill="none" fill-rule="evenodd"><path d="m0 0h36v36h-36z"/><path d="m7.14642837 15.2660719c.06700683.0502551.12653069.109779.17678581.1767858l2.73214182 3.6428558c.2929083.3905444.2137586.9445923-.17678581 1.2375007-.15300474.1147535-.33910153.1767858-.53035745.1767858l-1.29784733.0009739c1.2945494 4.3539713 5.33200739 7.4990261 10.06570549 7.4990261 3.7868864 0 7.2203999-2.0202422 9.0878263-5.2366314.4159569-.7164296 1.3339376-.9600108 2.0503671-.5440538.7164296.4159569.9600108 1.3339376.5440538 2.0503671-2.398938 4.1318461-6.815185 6.7303181-11.6822472 6.7303181-6.392631 0-11.79663239-4.4596503-13.16556713-10.4997107l-1.06657468-.0002893c-.48818056 0-.88392909-.3957485-.88392909-.8839291 0-.1912559.06203226-.3773527.17678582-.5303574l2.73214182-3.6428558c.29290834-.3905445.84695628-.4696942 1.23750073-.1767858zm10.96964253-11.2660719c6.3910013 0 11.7967993 4.45823418 13.1657609 10.5006155l1.0663809-.0006155c.191256 0 .3773528.0620323.5303575.1767858.3905444.2929084.4696941.8469563.1767858 1.2375007l-2.7321418 3.6428558c-.0502551.0670068-.109779.1265307-.1767858.1767858-.3905445.2929084-.9445924.2137587-1.2375008-.1767858l-2.7321418-3.6428558c-.1147535-.1530047-.1767858-.3391015-.1767858-.5303574 0-.4881806.3957485-.8839291.8839291-.8839291l1.2982775.0004024c-1.2943572-4.3558507-5.3333028-7.5004024-10.0661357-7.5004024-3.8095477 0-7.2606176 2.04467879-9.11960971 5.2917586-.411602.7189404-1.32808769.9680874-2.04702809.5564854-.71894039-.411602-.96808739-1.3280877-.55648539-2.0470281 2.38816363-4.17137744 6.82688339-6.8012159 11.72312319-6.8012159z" fill="#4292f3" fill-rule="nonzero"/></g></svg>