<svg viewBox="0 0 36 36" xmlns="http://www.w3.org/2000/svg" xmlns:xlink="http://www.w3.org/1999/xlink"><defs><linearGradient id="a" x1="50%" x2="50%" y1="0%" y2="97.623083%"><stop offset="0" stop-color="#3888ff"/><stop offset=".502108181" stop-color="#3a8aff" stop-opacity=".964503"/><stop offset="1" stop-color="#eef7ff"/></linearGradient><path id="b" d="m620.001 0c16.568542 0 30 14.1153064 30 31.5274193l.000002 112.4725807c-.000334 0-.000668 0-.001002 0-8.284271 0-15 6.715729-15 15s6.715729 15 15 15l.001 630h-650.001v-630c8.28427125 0 15-6.715729 15-15s-6.71572875-15-15-15v-112.4725807c0-17.4121129 13.4324575-31.5274193 30.001-31.5274193z"/><mask id="c" fill="#fff"><use fill="#fff" fill-rule="evenodd" xlink:href="#b"/></mask></defs><g fill="none" fill-rule="evenodd"><path d="m0 0h750v1624h-750z" fill="#fff" transform="translate(-642 -663)"/><path d="m0 372h750v800h-750z" fill="url(#a)" transform="translate(-642 -663)"/><g transform="translate(-592 -291)"><path d="m620.001 0c16.568542 0 30 14.1153064 30 31.5274193l.000002 112.4725807c-.000334 0-.000668 0-.001002 0-8.284271 0-15 6.715729-15 15s6.715729 15 15 15l.001 630h-650.001v-630c8.28427125 0 15-6.715729 15-15s-6.71572875-15-15-15v-112.4725807c0-17.4121129 13.4324575-31.5274193 30.001-31.5274193z" fill="#fff"/><use fill="#fff" xlink:href="#b"/><g fill="#3888ff" mask="url(#c)"><path d="m8 0h72v188h-72c-4.418278 0-8-3.581722-8-8v-172c0-4.418278 3.581722-8 8-8z" opacity=".1" transform="translate(570 267)"/><path d="m40 51-10.5801345 5.5623059 2.0206259-11.781153-8.5595087-8.3434588 11.82895-1.718847 5.2900673-10.7188471 5.2900673 10.7188471 11.82895 1.718847-8.5595087 8.3434588 2.0206259 11.781153z" transform="translate(570 267)"/></g></g></g></svg>