<svg enable-background="new 0 0 24 24" height="24" viewBox="0 0 24 24" width="24" xmlns="http://www.w3.org/2000/svg"><path d="m0 0h24v24h-24z" fill="none"/><path d="m11 5.5h-3v-1.5h.5c.55 0 1-.45 1-1s-.45-1-1-1h-3c-.55 0-1 .45-1 1s.45 1 1 1h.5v1.5h-3c-.55 0-1 .45-1 1s.45 1 1 1v7.5c0 1.1.9 2 2 2h1v4l2 1.5v-5.5h1c1.1 0 2-.9 2-2v-7.5c.55 0 1-.45 1-1s-.45-1-1-1zm-2 3.5h-1.75c-.41 0-.75.34-.75.75s.34.75.75.75h1.75v1.5h-1.75c-.41 0-.75.34-.75.75s.34.75.75.75h1.75v1.5h-4v-7.5h4zm10.5 1.5v-.5c.55 0 1-.45 1-1s-.45-1-1-1h-5c-.55 0-1 .45-1 1s.45 1 1 1v.5c0 .5-1.5 1.16-1.5 3v6.5c0 1.1.9 2 2 2h4c1.1 0 2-.9 2-2v-6.5c0-1.84-1.5-2.5-1.5-3zm-3 0v-.5h1v.5c0 1.6 1.5 2 1.5 3v.5h-4c0-.21 0-.39 0-.5 0-1 1.5-1.4 1.5-3zm2.5 5v1.5h-4c0-.51 0-1.02 0-1.5zm-4 4.5s0-.63 0-1.5h4v1.5z"/></svg>