<svg height="31" viewBox="0 0 129 31" width="129" xmlns="http://www.w3.org/2000/svg"><path d="m171.932 47.502c.902-1.628 1.54-2.706 1.914-3.234s1.0285-1.5785 1.9635-3.1515 1.7545-2.97 2.4585-4.191 1.716-3.1735 3.036-5.8575h-5.313l-3.333 6.303h-1.089c.528-1.122.9075-1.9525 1.1385-2.4915s.5115-1.1825.8415-1.9305.638-1.3805.924-1.8975.704-1.4685 1.254-2.8545h7.986v-2.013h-5.247l-.495-2.046h-6.336l.528 2.046h-5.478v2.013h3.795c-.308 1.034-.6985 2.101-1.1715 3.201s-.9515 2.1065-1.4355 3.0195-.869 1.6115-1.155 2.0955l-.396.693v1.98h5.148l-5.478 8.316zm-9.471 6.831v-23.892h3.135l.033-2.211h-3.168v-3.828h-5.214v3.828h-3.498v2.211h3.498v23.892zm-6.435 0c.088-1.364.132-2.5575.132-3.5805l.000823-.2856877c.006399-1.2797784.050124-4.5285491.131177-9.7463123.048-3.09.073091-5.3372727.075273-6.7418182l-.000256-.4872017c-.002511-.8456534-.016517-1.2684801-.042017-1.2684801h-2.211c-.022 0-.165 3.5145-.429 10.5435-.202213 5.3839149-.307622 8.9059665-.316226 10.5661548l-.000135.3762583c.001673.2999728.008127.5080018.019361.6240869zm9.867 0c-.022-2.068-.0385-3.5255-.0495-4.3725s-.2255-6.7595-.6435-17.7375h-1.914c-.033 0-.050875.33825-.053625 1.01475l.000316.4814885c.002932.6454362.015202 1.4996901.036809 2.5627615.055 2.706.0825 5.17.0825 7.392l.000587 5.7779333c.002542 1.2139111.013346 2.8409334.032413 4.8810667zm8.019.165 3.432-4.983 1.584 4.95h4.851c-.924-2.794-1.595-4.686-2.013-5.676s-.759-1.991-1.023-3.003l-.363-1.518 1.551-2.607c1.056-1.76 1.661-2.75 1.815-2.97h-5.577c-1.254 2.046-2.112 3.4485-2.574 4.2075s-.913 1.4575-1.353 2.0955l-1.65 2.409c-.66.946-2.431 3.311-5.313 7.095zm42.867-22.374-2.541-6.336h-4.653l1.617 4.29h-5.28l2.376-5.973h-4.851l-3.003 6.138v1.881zm-30.063 22.539 12.573-.099h6.468l2.475-2.805 2.475 2.838h6.501l-5.61-6.072 4.884-6.864v-2.64h-8.877l.759-1.749h-2.871l1.947-4.455h-5.214l-2.541 4.851v-7.656h-2.475v-3.3h2.871v-1.98h-13.431v1.98h2.871v3.3h-2.805zm7.062-24.651h-.792v-3.3h.792zm2.112 16.896h-5.148v-15.147h.726c-.044 1.672-.077 3.014-.099 4.026s-.066 2.442-.132 4.29-.132 3.212-.198 4.092h1.683c.066-3.652.154-7.788.264-12.408h.792l-.066 12.507h2.178zm0-4.488h-.693c.022-.858.033-1.7215.033-2.5905 0-.0271563-.000032-.0560903-.000097-.0868022l-.000773-.2056055c-.005608-1.096874-.038317-3.6889048-.09813-7.7760923h.759zm21.384-4.686-2.607-4.851h-4.95l2.31 4.851zm-17.589 6.369v-6.369h3.366zm8.679.99-2.145-2.805.594-1.287h4.323zm-8.679 9.075v-9.339h2.739c1.166 1.408 2.145 2.684 2.937 3.828zm-3.795-1.551h-5.148v-3.828h5.148zm40.755-18.81c1.232-1.98 2.464-4.092 3.696-6.336l.231.198 3.762 6.138h5.973l-3.597-5.28-2.805-4.224-7.161-.066c-1.54 3.058-3.52 6.248-5.94 9.57zm-13.563 21.12 4.851-.099v-24.255h3.036v-2.112h-3.036v-4.092h-4.851v3.993l-3.498.099v2.211h3.498zm8.052-.099-.099-5.016c-.044-3.344-.209-9.229-.495-17.655h-1.914l.429 22.671zm-9.141.099.198-22.638-2.211-.033-.528 22.671zm27.753-18.546v-1.749h-18.183v1.749zm-18.249 17.985c6.138.11 12.243.132 18.315.066v-1.914h-2.277c.858-6.358 1.43-11.473 1.716-15.345l-1.091965-.0003867c-.545273-.0038672-1.622285-.0367383-3.231035-.0986133-.176 2.75-.3355 4.906-.4785 6.468s-.5005 4.554-1.0725 8.976h-11.88zm11.715-2.838c-.034571 0-.123469-.8624337-.266694-2.587301l-.040408-.491801c-.027837-.3421225-.057469-.7127551-.088898-1.111898-.22-2.794-.572-6.138-1.056-10.032h-4.224c.748 4.884 1.232 9.625 1.452 14.223zm-5.577-.363c-.11-1.21-.2695-2.97-.4785-5.28s-.5665-5.159-1.0725-8.547h-4.158c.022 0 .1045.605.2475 1.815s.3025 2.728.4785 4.554.341 4.312.495 7.458zm40.392 3.135c1.342 0 2.508-.011 3.498-.033.088-.176.143-.319.165-.429.002918-.0145918.005256-.2006824.007013-.5582718l.00077-.1772186c.000121-.031566.000239-.0641468.000354-.0977424l.000646-.213751c.0001-.0376547.000198-.0763242.000292-.1160085l.000752-.3845579c.000073-.045773.000143-.0925608.000275-.1403634v-3.8237599c0-.0863644-.000132-.1737436-.000203-.2621376l-.000732-.8229453c-.000091-.0944827-.000186-.1899802-.000285-.2864925l-.000632-.5912511c-.000112-.1005714-.000228-.2021576-.000347-.3047586l-.000756-.6277835c-.006112-4.9063665-.019494-11.9600191-.040147-21.1609579l-4.455-.066v26.928l-.726-.99v-25.344h-3.597v29.304h3.597v-1.32c.66.726 1.177 1.232 1.551 1.518zm-24.156-22.374 4.95-.066c-.022-.88-.242-2.2495-.66-4.1085s-.715-2.9865-.891-3.3825h-.396l-4.323.165c.55 2.464.99 4.928 1.32 7.392zm8.844 14.421v-19.701h5.808c.044 6.336.077 12.859.099 19.569h3.366v-21.582h-12.243l-.132 21.714zm1.716 7.986c.726-.902 1.375-1.925 1.947-3.069l.297-.594c.286.946.682 2.167 1.188 3.663l4.422-.033c-.374-1.034-.6545-1.804-.8415-2.31s-.385-1.067-.594-1.683-.5665-1.573-1.0725-2.871h-2.277c.242-2.09.363-3.586.363-4.488v-13.068c0-.308-.022-.66-.066-1.056h-4.257v.264c.0352 3.696.05456 6.75752.05808 9.18456l-.000055 1.5564818c-.004683 2.7219055-.035025 4.4160582-.091025 5.0824582-.11 1.309-.4565 2.6675-1.0395 4.0755s-1.0395 2.3595-1.3695 2.8545-1.067 1.3255-2.211 2.4915zm-5.28-13.827c-.55-3.388-.979-5.907-1.287-7.557h-4.851l-.231.231c.33 2.134.5665 3.7565.7095 4.8675s.2145 1.9305.2145 2.4585c1.782.154 3.597.154 5.445 0zm-1.386 13.563c.528-3.938.8745-6.798 1.0395-8.58s.2475-3.08.2475-3.894l-4.488-.099-.462.165c-.11 1.606-.275 3.421-.495 5.445s-.4015 3.3605-.5445 4.0095-.2915 1.6005-.4455 2.8545c1.672.154 3.388.187 5.148.099z" fill="#555" transform="translate(-153 -24)"/></svg>