<svg height="32" viewBox="0 0 32 32" width="32" xmlns="http://www.w3.org/2000/svg"><g fill="none" fill-rule="evenodd"><path d="m0 0h32v32h-32z" fill="#fff" opacity="0"/><path d="m.00656092 15.5404115-.00656092.4595885c0-.1840586.00310791-.3673912.0092741-.5499484l.01925168-.4128658.02261353-.319332c.01987156-.2571127.04633317-.5124914.07872804-.7660156l.02401792-.1721045c.08991124-.6552876.22046493-1.2974348.38814834-1.9244071.20768473-.7725939.47328496-1.5338312.79785094-2.27547855l6.26422254 6.95893835-3.56190862 4.0371741c1.84150752 4.8092619 6.50087253 8.2240395 11.95780153 8.2240395 3.5346224 0 6.7346224-1.4326888 9.0509668-3.7490332l2.2627417 2.2627417c-2.8954305 2.8954305-6.8954305 4.6862915-11.3137085 4.6862915-6.13340583 0-11.46076098-3.4511132-14.14614182-8.517416l-.13949722-.2673841-.11276128-.2276713-.18596247-.3971439-.09402899-.2127044c-.04768306-.1092904-.09371168-.2186593-.13847037-.3284248-.59004972-1.4435347-.97524053-2.9927696-1.11940376-4.6113647l-.03904288-.5465883-.01852604-.4440603-.00595924-.5286735c.00063762-.126068.00275595-.2521298.00635499-.3781572zm15.99343908-15.5404115c6.1337199 0 11.4613066 3.45146669 14.1465544 8.51819436l.1396689.26776216c.1174141.23241849.228795.46710384.3341427.7038231l.17901.41807636.197656.50523282c.4887601 1.3102371.8103586 2.7019701.9392457 4.1491563l.0358176.4895435.0030327.0536551c.0166024.2960135.024872.5943191.024872.8945563l-.0001137.0605056c-.0004999.1330157-.0026481.2660264-.0064448.3989988l.0065585-.4595044c0 .1792054-.0029462.3577227-.0087927.5355062l-.0220002.4653188-.0176482.2470951c-.021325.2827297-.0504368.5629773-.0866851.8409822l-.0492695.3479997c-.0886041.5798181-.2083315 1.1493944-.3574237 1.7069706-.2078012.773125-.473463 1.5345674-.7981219 2.276409l-6.2636923-6.9604088 3.5614351-4.0358333c-1.8415075-4.80926188-6.5008725-8.2240395-11.9578015-8.2240395-3.5346224 0-6.7346224 1.4326888-9.0509668 3.7490332l-2.2627417-2.2627417c2.8954305-2.8954305 6.8954305-4.6862915 11.3137085-4.6862915z" fill="#919eab"/></g></svg>